<mxfile host="app.diagrams.net" modified="2024-02-15T11:13:22.878Z" agent="Mozilla/5.0 (Windows NT 10.0; Win64; x64) AppleWebKit/537.36 (KHTML, like Gecko) Chrome/121.0.0.0 Safari/537.36 Edg/121.0.0.0" etag="NqRAw7Hlx8cPUhfUinsJ" version="23.1.4" type="device">
  <diagram name="Page-1" id="UAFx5-n7g6ws1p6xNIlK">
    <mxGraphModel dx="956" dy="569" grid="0" gridSize="10" guides="1" tooltips="1" connect="1" arrows="1" fold="1" page="1" pageScale="1" pageWidth="850" pageHeight="1100" background="#ffffff" math="0" shadow="0">
      <root>
        <mxCell id="0" />
        <mxCell id="1" parent="0" />
        <mxCell id="w324Fs-mrKCEELAaoTrz-4" value="" style="rounded=0;whiteSpace=wrap;html=1;" vertex="1" parent="1">
          <mxGeometry x="182" y="217" width="480" height="120" as="geometry" />
        </mxCell>
        <mxCell id="w324Fs-mrKCEELAaoTrz-10" style="edgeStyle=orthogonalEdgeStyle;rounded=0;orthogonalLoop=1;jettySize=auto;html=1;exitX=0.875;exitY=0.5;exitDx=0;exitDy=0;exitPerimeter=0;entryX=0;entryY=0.5;entryDx=0;entryDy=0;" edge="1" parent="1" source="w324Fs-mrKCEELAaoTrz-1" target="w324Fs-mrKCEELAaoTrz-5">
          <mxGeometry relative="1" as="geometry">
            <Array as="points">
              <mxPoint x="152" y="187" />
              <mxPoint x="152" y="277" />
            </Array>
          </mxGeometry>
        </mxCell>
        <mxCell id="w324Fs-mrKCEELAaoTrz-1" value="S3 bucket" style="ellipse;shape=cloud;whiteSpace=wrap;html=1;" vertex="1" parent="1">
          <mxGeometry x="2" y="147" width="120" height="80" as="geometry" />
        </mxCell>
        <mxCell id="w324Fs-mrKCEELAaoTrz-11" style="edgeStyle=orthogonalEdgeStyle;rounded=0;orthogonalLoop=1;jettySize=auto;html=1;entryX=0;entryY=0.5;entryDx=0;entryDy=0;" edge="1" parent="1" source="w324Fs-mrKCEELAaoTrz-2" target="w324Fs-mrKCEELAaoTrz-5">
          <mxGeometry relative="1" as="geometry">
            <Array as="points">
              <mxPoint x="152" y="347" />
              <mxPoint x="152" y="277" />
            </Array>
          </mxGeometry>
        </mxCell>
        <mxCell id="w324Fs-mrKCEELAaoTrz-2" value="MySQL" style="shape=cylinder3;whiteSpace=wrap;html=1;boundedLbl=1;backgroundOutline=1;size=15;" vertex="1" parent="1">
          <mxGeometry x="32" y="307" width="60" height="80" as="geometry" />
        </mxCell>
        <mxCell id="w324Fs-mrKCEELAaoTrz-15" style="edgeStyle=orthogonalEdgeStyle;rounded=0;orthogonalLoop=1;jettySize=auto;html=1;entryX=0;entryY=0.5;entryDx=0;entryDy=0;" edge="1" parent="1" source="w324Fs-mrKCEELAaoTrz-3" target="w324Fs-mrKCEELAaoTrz-6">
          <mxGeometry relative="1" as="geometry" />
        </mxCell>
        <mxCell id="w324Fs-mrKCEELAaoTrz-3" value="grouping operations" style="shape=process;whiteSpace=wrap;html=1;backgroundOutline=1;" vertex="1" parent="1">
          <mxGeometry x="347" y="247" width="120" height="60" as="geometry" />
        </mxCell>
        <mxCell id="w324Fs-mrKCEELAaoTrz-14" style="edgeStyle=orthogonalEdgeStyle;rounded=0;orthogonalLoop=1;jettySize=auto;html=1;" edge="1" parent="1" source="w324Fs-mrKCEELAaoTrz-5" target="w324Fs-mrKCEELAaoTrz-3">
          <mxGeometry relative="1" as="geometry" />
        </mxCell>
        <mxCell id="w324Fs-mrKCEELAaoTrz-5" value="Input Data" style="shape=parallelogram;perimeter=parallelogramPerimeter;whiteSpace=wrap;html=1;fixedSize=1;" vertex="1" parent="1">
          <mxGeometry x="202" y="247" width="120" height="60" as="geometry" />
        </mxCell>
        <mxCell id="w324Fs-mrKCEELAaoTrz-6" value="output" style="shape=parallelogram;perimeter=parallelogramPerimeter;whiteSpace=wrap;html=1;fixedSize=1;" vertex="1" parent="1">
          <mxGeometry x="502" y="247" width="120" height="60" as="geometry" />
        </mxCell>
        <mxCell id="w324Fs-mrKCEELAaoTrz-7" value="S3 bucket" style="ellipse;shape=cloud;whiteSpace=wrap;html=1;" vertex="1" parent="1">
          <mxGeometry x="722" y="147" width="120" height="80" as="geometry" />
        </mxCell>
        <mxCell id="w324Fs-mrKCEELAaoTrz-8" value="MySQL" style="shape=cylinder3;whiteSpace=wrap;html=1;boundedLbl=1;backgroundOutline=1;size=15;" vertex="1" parent="1">
          <mxGeometry x="752" y="307" width="60" height="80" as="geometry" />
        </mxCell>
        <mxCell id="w324Fs-mrKCEELAaoTrz-9" value="Spark Job" style="text;html=1;align=center;verticalAlign=middle;whiteSpace=wrap;rounded=0;" vertex="1" parent="1">
          <mxGeometry x="202" y="217" width="60" height="30" as="geometry" />
        </mxCell>
        <mxCell id="w324Fs-mrKCEELAaoTrz-12" style="edgeStyle=orthogonalEdgeStyle;rounded=0;orthogonalLoop=1;jettySize=auto;html=1;entryX=0.16;entryY=0.55;entryDx=0;entryDy=0;entryPerimeter=0;" edge="1" parent="1" source="w324Fs-mrKCEELAaoTrz-6" target="w324Fs-mrKCEELAaoTrz-7">
          <mxGeometry relative="1" as="geometry">
            <Array as="points">
              <mxPoint x="702" y="277" />
              <mxPoint x="702" y="191" />
            </Array>
          </mxGeometry>
        </mxCell>
        <mxCell id="w324Fs-mrKCEELAaoTrz-13" style="edgeStyle=orthogonalEdgeStyle;rounded=0;orthogonalLoop=1;jettySize=auto;html=1;entryX=0;entryY=0.5;entryDx=0;entryDy=0;entryPerimeter=0;" edge="1" parent="1" source="w324Fs-mrKCEELAaoTrz-6" target="w324Fs-mrKCEELAaoTrz-8">
          <mxGeometry relative="1" as="geometry">
            <Array as="points">
              <mxPoint x="702" y="277" />
              <mxPoint x="702" y="347" />
            </Array>
          </mxGeometry>
        </mxCell>
      </root>
    </mxGraphModel>
  </diagram>
</mxfile>
